<svg xmlns="http://www.w3.org/2000/svg" width="1186.871" height="719.954"><defs><clipPath id="a"><path fill="none" d="M0 0h198.923v166.385H0z"/></clipPath></defs><g data-name="Group 149"><g data-name="Group 147"><g data-name="Group 62" fill="#fff" stroke="#05154b"><path data-name="Path 83" d="M1031.493 643.446c-7.369 6.06-10.051 8.757-10.051 8.757l-10.901-4.243-11.434 10.034-13.115-3.668-9.954 9.65-11.517-4.082-6.746 8.82-10.88-4.253-7.69 9.067-8.551-4.85-8.8 9.35-10.418-4.369" stroke-width="1.00014"/><path data-name="Path 82" d="M1036.957 662.5c-7.369 6.062-10.051 8.758-10.051 8.758l-10.901-4.243-11.435 10.034-13.114-3.668-9.954 9.65-11.517-4.082-6.746 8.82-10.88-4.253-7.69 9.068-8.551-4.85-8.8 9.349-10.418-4.369" stroke-width="1.00014"/><path data-name="Path 81" d="M1042.421 681.556c-7.369 6.061-10.051 8.757-10.051 8.757l-10.901-4.243-11.435 10.035-13.114-3.669-9.954 9.65-11.518-4.082-6.745 8.82-10.88-4.253-7.69 9.068-8.551-4.85-8.8 9.349-10.418-4.369" stroke-width="1.00014"/></g></g><g data-name="Path 137" fill="#fff"><path d="M1164.883 645.238c-4.712-3.816-6.003-10.06-2.88-13.917 3.125-3.859 9.5-3.893 14.212-.077 4.712 3.815 6.004 10.059 2.88 13.917-3.124 3.858-9.5 3.892-14.212.077z"/><path d="M1175.271 632.41c-2.046-1.657-4.482-2.546-6.86-2.502-2.181.04-4.043.877-5.242 2.357-1.198 1.48-1.63 3.475-1.215 5.617.452 2.335 1.827 4.533 3.873 6.19 2.046 1.657 4.483 2.545 6.86 2.502 2.182-.04 4.044-.877 5.242-2.357 1.199-1.48 1.63-3.475 1.216-5.618-.452-2.334-1.828-4.533-3.874-6.19m1.888-2.331c5.364 4.343 6.752 11.519 3.102 16.027-3.651 4.508-10.958 4.641-16.322.298-5.363-4.343-6.752-11.518-3.101-16.026 3.65-4.508 10.958-4.642 16.321-.299z" fill="#efa9a8"/></g><g data-name="Path 135" fill="#fff"><path d="M608.528 662.236c-1.03-.834-1.401-2.554-1.017-4.718.445-2.511 1.806-5.271 3.83-7.77 2.024-2.5 4.44-4.405 6.805-5.363 2.036-.825 3.795-.82 4.826.014 1.03.835 1.402 2.555 1.018 4.718-.446 2.512-1.806 5.272-3.83 7.771-2.025 2.5-4.441 4.404-6.805 5.362-2.037.826-3.796.82-4.827-.014z"/><path d="M622.028 645.565c-.576-.467-1.848-.386-3.319.21-2.102.852-4.363 2.644-6.203 4.916-1.84 2.272-3.122 4.856-3.518 7.09-.278 1.562-.092 2.823.484 3.29.576.466 1.848.386 3.32-.21 2.1-.853 4.362-2.644 6.202-4.917 1.84-2.272 3.122-4.856 3.519-7.089.277-1.563.091-2.823-.485-3.29m1.888-2.331c3.079 2.493 1.919 9.029-2.59 14.598-4.51 5.57-10.663 8.063-13.742 5.57-3.079-2.493-1.919-9.03 2.591-14.599 4.51-5.57 10.662-8.063 13.741-5.57z" fill="#efa9a8"/></g><g data-name="Path 136" fill="#fff"><path d="M1031.372 15.523c-1.939-1.57-3.369-3.497-4.026-5.426-.776-2.277-.152-3.531.29-4.076.44-.545 1.538-1.416 3.926-1.13 2.024.241 4.206 1.24 6.144 2.81 1.939 1.569 3.369 3.496 4.026 5.425.776 2.277.152 3.53-.29 4.076-.44.545-1.538 1.416-3.926 1.13-2.024-.241-4.206-1.24-6.144-2.81z"/><path d="M1036.762 8.866c-1.696-1.374-3.657-2.28-5.378-2.486-1.204-.144-2.17.074-2.583.585-.413.51-.427 1.5-.036 2.648.56 1.641 1.854 3.37 3.55 4.744 1.697 1.374 3.658 2.28 5.379 2.486 1.204.144 2.17-.075 2.583-.585.413-.51.427-1.5.035-2.648-.559-1.641-1.853-3.37-3.55-4.744m1.888-2.332c4.457 3.61 6.229 8.808 3.958 11.612-2.27 2.804-7.724 2.151-12.18-1.457-4.457-3.61-6.229-8.808-3.958-11.612 2.27-2.804 7.724-2.151 12.18 1.457z" fill="#efa9a8"/></g><g data-name="Group 148" stroke="#efa9a8" stroke-width="3"><path data-name="Path 63" d="M852.03 52.068l5.176-19.603" fill="#fff"/><path data-name="Line 2" fill="none" d="M844.492 42.76l20.368-.989"/></g><g data-name="Group 144" opacity=".361" fill="#fff" stroke="#05154b" stroke-width="2"><path data-name="Path 78" d="M84.968 45.16a65.34 65.34 0 00-3.376 5.75l-5.87-2.291-3.826 6.583-6.835-1.862-3.182 6.298-6.142-2.169-1.788 5.681-5.866-2.291-2.199 5.862-4.853-2.739-2.684 6.077-5.66-2.382" stroke-width="2.00034"/><path data-name="Path 79" d="M90.641 56.804a65.34 65.34 0 00-3.376 5.75l-5.87-2.29-3.826 6.583-6.834-1.863-3.182 6.3-6.142-2.17-1.789 5.68-5.865-2.29-2.2 5.862-4.853-2.74-2.683 6.078-5.66-2.383" stroke-width="2.00034"/><path data-name="Path 80" d="M96.315 68.45a65.34 65.34 0 00-3.377 5.749l-5.87-2.291-3.825 6.584-6.835-1.863-3.182 6.299-6.142-2.17-1.788 5.682-5.866-2.292-2.199 5.863-4.853-2.74-2.684 6.078-5.66-2.383" stroke-width="2.00034"/></g><g data-name="Group 146" stroke="#f28281" stroke-width="3"><path data-name="Path 63" d="M495.787 448.26l-1.85-21.252" fill="#fff"/><path data-name="Line 2" fill="none" d="M484.237 438.568l21.374-1.875"/></g><g data-name="Repeat Grid 4" transform="translate(715.058 374.32)" opacity=".244" clip-path="url(#a)"><path data-name="Line 3" fill="none" stroke="#040122" d="M.461 12.192l5-12M26.461 12.192l5-12M52.461 12.192l5-12M78.461 12.192l5-12M104.461 12.192l5-12M130.461 12.192l5-12M156.461 12.192l5-12M182.461 12.192l5-12M.461 45.192l5-12M26.461 45.192l5-12M52.461 45.192l5-12M78.461 45.192l5-12M104.461 45.192l5-12M130.461 45.192l5-12M156.461 45.192l5-12M182.461 45.192l5-12M.461 78.192l5-12M26.461 78.192l5-12M52.461 78.192l5-12M78.461 78.192l5-12M104.461 78.192l5-12M130.461 78.192l5-12M156.461 78.192l5-12M182.461 78.192l5-12M.461 111.192l5-12M26.461 111.192l5-12M52.461 111.192l5-12M78.461 111.192l5-12M104.461 111.192l5-12M130.461 111.192l5-12M156.461 111.192l5-12M182.461 111.192l5-12M.461 144.192l5-12M26.461 144.192l5-12M52.461 144.192l5-12M78.461 144.192l5-12M104.461 144.192l5-12M130.461 144.192l5-12M156.461 144.192l5-12M182.461 144.192l5-12M.461 177.192l5-12M26.461 177.192l5-12M52.461 177.192l5-12M78.461 177.192l5-12M104.461 177.192l5-12M130.461 177.192l5-12M156.461 177.192l5-12M182.461 177.192l5-12"/></g><g data-name="Group 145"><path data-name="Line 2" fill="none" stroke="#f28281" stroke-width="3" d="M29.715 637.337l18.217-11.086"/><g data-name="Group 136"><path data-name="Path 63" d="M44.345 640.994l-10.98-18.29" fill="#fff" stroke="#f28281" stroke-width="3"/></g></g><g data-name="Path 134" fill="#fff"><path d="M2.913 409.527c-.192-.986.818-2.772 4.227-4.826 3.414-2.057 8.188-3.752 13.44-4.773 5.253-1.02 10.314-1.237 14.25-.61 3.93.628 5.536 1.905 5.727 2.892.192.987-.817 2.772-4.226 4.826-3.415 2.057-8.188 3.752-13.441 4.773s-10.314 1.238-14.25.61c-3.93-.627-5.535-1.905-5.727-2.892z"/><path d="M39.078 402.498c-.191-.3-1.452-1.305-5.082-1.785-3.682-.486-8.345-.242-13.13.688-4.783.93-9.198 2.45-12.43 4.28-3.186 1.805-3.979 3.209-4.043 3.559.19.3 1.451 1.305 5.081 1.784 3.683.487 8.345.243 13.13-.687 4.784-.93 9.199-2.45 12.43-4.281 3.187-1.805 3.979-3.209 4.044-3.558m2.952-.574c.796 4.094-7.645 9.179-18.854 11.358-11.208 2.178-20.94.626-21.736-3.468-.795-4.094 7.646-9.18 18.854-11.358 11.209-2.179 20.94-.626 21.736 3.468z" fill="#efa9a8"/></g></g></svg>