<svg xmlns="http://www.w3.org/2000/svg" width="22.006" height="20.276" viewBox="0 0 22.006 20.276"><path d="M16.049,0H5.957A5.744,5.744,0,0,0,0,5.489v9.3a5.744,5.744,0,0,0,5.957,5.488H16.049a5.743,5.743,0,0,0,5.957-5.488v-9.3A5.744,5.744,0,0,0,16.049,0Zm4.667,14.788a4.5,4.5,0,0,1-4.667,4.3H5.957a4.5,4.5,0,0,1-4.667-4.3v-9.3a4.5,4.5,0,0,1,4.667-4.3H16.049a4.5,4.5,0,0,1,4.667,4.3Zm0,0" fill="rgba(0,0,0,0.87)"/><path d="M122.021,116c-3.318,0-6.017,2.189-6.017,4.879s2.7,4.879,6.017,4.879,6.017-2.189,6.017-4.879S125.339,116,122.021,116Zm0,8.711c-2.606,0-4.727-1.719-4.727-3.833s2.121-3.833,4.727-3.833,4.727,1.719,4.727,3.833S124.628,124.715,122.021,124.715Zm0,0" transform="translate(-111.018 -110.745)" fill="rgba(0,0,0,0.87)"/><path d="M359.755,66.285a1.878,1.878,0,1,0,1.778,1.875A1.831,1.831,0,0,0,359.755,66.285Zm0,2.39a.515.515,0,1,1,.488-.515A.5.5,0,0,1,359.755,68.675Zm0,0" transform="translate(-342.591 -63.28)" fill="rgba(0,0,0,0.87)"/></svg>