<svg xmlns="http://www.w3.org/2000/svg" width="22.006" height="20.276" viewBox="0 0 22.006 20.276"><path d="M6.877,16.752H3.869V7.8H6.877Zm.3-11.8A1.7,1.7,0,0,0,5.416,3.327,1.7,1.7,0,0,0,3.653,4.95,1.7,1.7,0,0,0,5.416,6.574,1.7,1.7,0,0,0,7.177,4.95Zm10.96,6.878c0-2.4-.551-4.184-3.6-4.184a3.189,3.189,0,0,0-2.847,1.376h0V7.8H8.768v8.95h2.923V12.308c0-1.164.322-2.291,1.887-2.291,1.544,0,1.594,1.331,1.594,2.365v4.37h2.966ZM22.006,17.9V2.376A2.486,2.486,0,0,0,19.427,0H2.579A2.486,2.486,0,0,0,0,2.376V17.9a2.486,2.486,0,0,0,2.579,2.376H19.427A2.486,2.486,0,0,0,22.006,17.9ZM19.427,1.584a.829.829,0,0,1,.86.792V17.9a.829.829,0,0,1-.86.792H2.579a.829.829,0,0,1-.86-.792V2.376a.829.829,0,0,1,.86-.792Zm0,0" fill="rgba(0,0,0,0.87)"/></svg>