<svg xmlns="http://www.w3.org/2000/svg" width="22.006" height="18.084" viewBox="0 0 22.006 18.084"><path d="M22.006,2.416c-1.384.064-1.354.059-1.511.072l.82-2.351s-2.559.945-3.208,1.114A5.118,5.118,0,0,0,12.061.763a4.211,4.211,0,0,0-2.013,4.324A11.159,11.159,0,0,1,2.811,1L2.2.264,1.751,1.1a5.073,5.073,0,0,0-.536,3.4,4.9,4.9,0,0,0,.472,1.328l-.521-.2L1.1,6.5a4.676,4.676,0,0,0,.787,2.771,4.924,4.924,0,0,0,.613.759l-.269-.041.328,1a4.861,4.861,0,0,0,2.492,2.9c-1.162.5-2.1.811-3.644,1.321L0,15.679l1.3.716a13.651,13.651,0,0,0,3.989,1.458c3.858.608,8.2.113,11.126-2.532,2.463-2.227,3.271-5.4,3.1-8.693a2.066,2.066,0,0,1,.383-1.341C20.453,4.554,22,2.42,22.006,2.416Zm-3.13,2.1a3.365,3.365,0,0,0-.639,2.183c.169,3.326-.732,5.905-2.679,7.666-2.274,2.057-5.943,2.864-10.065,2.215a9.95,9.95,0,0,1-2.156-.643,34.116,34.116,0,0,0,3.906-1.612l2.252-1.07-2.486-.16a3.514,3.514,0,0,1-2.792-1.6,4.443,4.443,0,0,0,.947-.158l2.371-.663-2.391-.588A3.562,3.562,0,0,1,2.967,8.563,3.67,3.67,0,0,1,2.5,7.518a5.947,5.947,0,0,0,.97.155l2.213.22L3.925,6.52a3.714,3.714,0,0,1-1.4-3.905,12.8,12.8,0,0,0,9.04,3.907,7.7,7.7,0,0,0-.132-1.1,2.977,2.977,0,0,1,1.3-3.558,3.839,3.839,0,0,1,4.543.378,1.15,1.15,0,0,0,1.059.284,8.884,8.884,0,0,0,.872-.266l-.556,1.594h.71Zm0,0" transform="translate(0 0)" fill="rgba(0,0,0,0.87)"/></svg>