<?xml version="1.0" standalone="no"?>
<!DOCTYPE svg PUBLIC "-//W3C//DTD SVG 20010904//EN"
 "http://www.w3.org/TR/2001/REC-SVG-20010904/DTD/svg10.dtd">
<svg version="1.0" xmlns="http://www.w3.org/2000/svg"
 width="100.000000pt" height="100.000000pt" viewBox="0 0 100.000000 100.000000"
 preserveAspectRatio="xMidYMid meet">
<metadata>
Created by potrace 1.11, written by Peter Selinger 2001-2013
</metadata>
<g transform="translate(0.000000,100.000000) scale(0.100000,-0.100000)"
fill="#000000" stroke="none">
<path d="M70 595 l0 -345 40 0 c38 0 40 -2 40 -30 l0 -30 350 0 350 0 0 345
-1 345 -39 0 c-38 0 -40 2 -40 30 l0 30 -350 0 -350 0 0 -345z m670 300 c0
-11 -12 -15 -42 -15 -24 -1 -157 -1 -295 -1 l-253 0 0 -97 c-1 -53 0 -188 0
-300 l1 -202 -26 0 -25 0 0 315 0 315 320 0 c278 0 320 -2 320 -15z"/>
<path d="M270 159 c0 -5 5 -7 10 -4 6 3 10 8 10 11 0 2 -4 4 -10 4 -5 0 -10
-5 -10 -11z"/>
</g>
</svg>
